<?xml version="1.0" standalone="no"?><!DOCTYPE svg PUBLIC "-//W3C//DTD SVG 1.1//EN" "http://www.w3.org/Graphics/SVG/1.1/DTD/svg11.dtd"><svg t="1631199664869" class="icon" viewBox="0 0 1025 1024" version="1.1" xmlns="http://www.w3.org/2000/svg" p-id="6510" xmlns:xlink="http://www.w3.org/1999/xlink" width="200.1953125" height="200"><defs><style type="text/css"></style></defs><path d="M206.941 615.96c24.25-20.923 36.375-48.292 36.375-82.084 0-27.205-8.005-49.268-23.97-66.28-15.989-16.99-37.307-27.043-63.93-30.162v-1.094c21.317-6.981 38.027-18.734 50.152-35.281 12.125-16.524 18.176-35.98 18.176-58.415 0-26.81-10.007-48.57-30.045-65.303s-47.08-25.065-81.245-25.065H0.024v395.101H115.2c36.91-0.023 67.49-10.472 91.741-31.418zM46.313 294.143H99.49c50.502 0 75.753 19.2 75.753 57.577 0 22.248-7.261 39.447-21.76 51.665s-34.444 18.316-59.788 18.316H46.313V294.144z m0 169.17H99.49c63.534 0 95.325 23.342 95.325 69.98 0 22.412-7.494 40.053-22.458 52.9-14.988 12.87-36.05 19.293-63.232 19.293H46.313V463.313zM317.44 251.461h45.172v395.892H317.44V251.462z m356.934 355.84c25.437-27.09 38.167-63.14 38.167-108.125 0-45.94-11.822-81.85-35.398-107.73-23.622-25.902-56.436-38.842-98.49-38.842-44.102 0-79.08 13.312-104.983 39.96s-38.842 63.65-38.842 111.034c0 43.52 12.427 78.475 37.33 104.82 24.878 26.368 58.18 39.54 99.886 39.54 42.775-0.023 76.893-13.568 102.33-40.657zM481.094 501.9c0-34.723 8.448-61.952 25.344-81.688 16.896-19.758 39.843-29.626 68.887-29.626 29.207 0 51.666 9.565 67.351 28.649 15.733 19.107 23.576 46.29 23.576 81.548 0 34.909-7.843 61.812-23.576 80.733-15.685 18.92-38.144 28.392-67.35 28.392-28.673 0-51.55-9.635-68.609-28.928-17.082-19.293-25.623-45.637-25.623-79.08z" fill="#040000" p-id="6511"></path><path d="M1025.513 618.729V359.19H980.34v39.122h-1.093c-18.386-30.488-46.57-45.731-84.597-45.731-40.052 0-71.587 14.15-94.627 42.426-23.063 28.276-34.583 66.397-34.583 114.339 0 42.24 10.705 75.916 32.093 100.98 21.411 25.088 49.664 37.609 84.736 37.609 43.171 0 75.497-17.99 97-53.993h1.095v30.86c0 28.928-5.33 52.177-16.012 69.772l-22.83 24.157-0.978 0.675c-7.145 4.398-57.716 32.721-130.118-0.559-78.22-36.003-189.533-38.959-216.948 55.296l32.28 24.855s0-44.358 49.989-62.115c37.143-13.172 77.568 3.468 109.568 17.199v0.186c9.193 4.655 18.92 8.495 29.207 11.497l0.489 0.163a225.047 225.047 0 0 0 61.766 8.215c99.142 0 148.736-51.828 148.736-155.415z m-69.004-35.817c-15.918 17.99-36.515 26.996-61.859 26.996-24.971 0-45.056-9.402-60.206-28.253-15.15-18.827-22.738-43.939-22.738-75.357 0-36.538 7.89-64.954 23.692-85.248s37.655-30.464 65.582-30.464c22.598 0 41.45 7.983 56.623 23.971 15.15 15.988 22.737 35.165 22.737 57.577v41.611c0 28.09-7.959 51.154-23.83 69.167z" fill="#040000" p-id="6512"></path></svg>