<?xml version="1.0" standalone="no"?><!DOCTYPE svg PUBLIC "-//W3C//DTD SVG 1.1//EN" "http://www.w3.org/Graphics/SVG/1.1/DTD/svg11.dtd"><svg t="1631300654881" class="icon" viewBox="0 0 1024 1024" version="1.1" xmlns="http://www.w3.org/2000/svg" p-id="5935" xmlns:xlink="http://www.w3.org/1999/xlink" width="200" height="200"><defs><style type="text/css"></style></defs><path d="M512 512m-512 0a512 512 0 1 0 1024 0 512 512 0 1 0-1024 0Z" fill="#FFC31F" p-id="5936"></path><path d="M405.76 721.792L302.144 618.304l286.08-286.08 103.552 103.488-286.08 286.08z m352.768-401.344l-54.976-55.04c-13.44-13.376-36.096-12.416-50.624 2.176l-51.648 51.648 103.488 103.488 51.648-51.648c14.592-14.528 15.552-37.248 2.112-50.624z m-465.92 314.112L256 768l133.44-36.608-96.832-96.832z" fill="#FFFFFF" p-id="5937"></path></svg>